<?xml version="1.0" encoding="utf-8"?>
<!-- Generator: Adobe Illustrator 20.1.0, SVG Export Plug-In . SVG Version: 6.00 Build 0)  -->
<svg version="1.1" id="Capa_1" xmlns="http://www.w3.org/2000/svg" xmlns:xlink="http://www.w3.org/1999/xlink" x="0px" y="0px"
	 viewBox="0 0 792 612" style="enable-background:new 0 0 792 612;" xml:space="preserve">
<style type="text/css">
	.st0{fill:#FFFFFF;}
</style>
<g>
	<path class="st0" d="M424.1,351c-6.1,8.2-13.1,14.1-21.1,17.7c-8,3.6-16.6,5.4-25.9,5.4c-9.7,0-18.5-1.6-26.5-4.9
		s-14.9-7.9-20.6-13.8c-5.7-5.9-10.2-12.9-13.4-21.1c-3.2-8.2-4.8-17.1-4.8-26.7s1.6-18.5,4.8-26.6c3.2-8.1,7.7-15.1,13.4-21
		c5.7-5.9,12.6-10.5,20.6-13.8c8-3.3,16.9-5,26.5-5c8.6,0,16.6,1.5,24,4.6c7.4,3,14,8.1,19.6,15.3l-9.7,8c-3.9-6-9-10.3-15.1-13
		c-6.1-2.7-12.4-4.1-18.9-4.1c-8.2,0-15.6,1.4-22.3,4.3c-6.6,2.9-12.2,6.8-16.9,11.8c-4.6,5-8.2,10.9-10.7,17.7
		c-2.5,6.8-3.8,14.1-3.8,22c0,7.9,1.3,15.2,3.8,22c2.5,6.8,6.1,12.7,10.7,17.7c4.6,5,10.3,8.9,16.9,11.8c6.6,2.9,14,4.3,22.3,4.3
		c3.2,0,6.6-0.4,10-1.2c3.5-0.8,6.8-2,10.1-3.6c3.3-1.6,6.4-3.6,9.4-6.1c3-2.4,5.6-5.4,7.9-8.8L424.1,351z"/>
	<path class="st0" d="M442.7,311.6c0-1.5-0.1-3.4-0.2-5.6c-0.1-2.2-0.2-4.4-0.3-6.7c-0.1-2.3-0.2-4.4-0.3-6.3
		c-0.1-2-0.2-3.5-0.2-4.6h10.7c0.1,3.1,0.2,6.1,0.3,8.9c0.1,2.9,0.2,4.7,0.4,5.5c2.7-4.9,6.3-8.9,10.5-12c4.3-3.1,9.5-4.6,15.7-4.6
		c1.1,0,2.1,0.1,3.1,0.3c1,0.2,2.1,0.4,3.1,0.6l-1.3,10.5c-1.4-0.5-2.8-0.7-4.1-0.7c-4.6,0-8.7,0.7-12.1,2.2
		c-3.4,1.5-6.2,3.5-8.4,6.2c-2.2,2.6-3.8,5.7-4.9,9.2c-1.1,3.5-1.6,7.3-1.6,11.3v45h-10.7V311.6z"/>
	<path class="st0" d="M572,355.3c-4.2,6.3-9.3,10.8-15.5,13.6c-6.1,2.7-12.9,4.1-20.3,4.1c-6.3,0-12-1.1-17.2-3.2
		c-5.1-2.1-9.5-5.1-13.2-9c-3.7-3.9-6.5-8.5-8.5-13.8c-2-5.3-2.9-11.2-2.9-17.6c0-6.2,1-11.9,3-17.2c2-5.2,4.9-9.8,8.6-13.7
		c3.7-3.9,8-6.9,13-9.1c5-2.2,10.5-3.3,16.6-3.3c6.3,0,11.9,1.1,16.7,3.3c4.8,2.2,8.9,5.1,12.2,8.8c3.3,3.6,5.7,7.8,7.4,12.4
		c1.7,4.6,2.5,9.4,2.5,14.1v7.5h-69.4c0,2.3,0.4,5.2,1.3,8.7c0.9,3.5,2.5,6.9,4.9,10.3c2.4,3.3,5.6,6.2,9.6,8.6
		c4,2.4,9.1,3.6,15.5,3.6c5.5,0,10.8-1.3,15.9-3.9c5.1-2.6,9.1-6.2,11.8-10.7L572,355.3z M563.7,322.6c0-3.7-0.7-7.1-2.2-10.4
		c-1.5-3.2-3.5-6-6.1-8.5c-2.6-2.4-5.6-4.4-9.1-5.8c-3.5-1.4-7.2-2.1-11.2-2.1c-5.8,0-10.7,1.2-14.6,3.6c-3.9,2.4-6.9,5.1-9.2,8.2
		c-2.3,3.1-3.9,6.1-4.8,9c-1,2.9-1.4,4.9-1.4,6H563.7z"/>
	<path class="st0" d="M670.6,356.4h-0.4c-1.7,2.9-3.8,5.3-6.3,7.4c-2.5,2.1-5.2,3.8-8.1,5.2c-2.9,1.4-6,2.4-9.2,3
		c-3.2,0.7-6.4,1-9.5,1c-6.3,0-12.2-1.1-17.5-3.2c-5.4-2.1-10-5.1-13.8-9c-3.8-3.9-6.8-8.5-8.9-13.8c-2.1-5.3-3.2-11.1-3.2-17.4
		c0-6.3,1.1-12.1,3.2-17.4c2.1-5.3,5.1-9.9,8.9-13.8c3.8-3.9,8.4-6.9,13.8-9c5.4-2.1,11.2-3.2,17.5-3.2c3.1,0,6.3,0.3,9.5,1
		c3.2,0.7,6.3,1.7,9.2,3c2.9,1.4,5.6,3.1,8.1,5.2c2.5,2.1,4.6,4.6,6.3,7.4h0.4v-34.4h10.7v102.4h-10.7V356.4z M671.7,329.6
		c0-4.6-0.9-9-2.7-13.1c-1.8-4.1-4.2-7.7-7.3-10.7c-3.1-3-6.7-5.4-10.9-7.2c-4.2-1.8-8.7-2.7-13.6-2.7c-5,0-9.5,0.9-13.6,2.7
		c-4.1,1.8-7.5,4.2-10.4,7.2c-2.9,3-5,6.6-6.5,10.7c-1.5,4.1-2.2,8.5-2.2,13.1c0,4.6,0.7,9,2.2,13.1c1.5,4.1,3.7,7.7,6.5,10.7
		c2.9,3,6.3,5.4,10.4,7.2c4,1.8,8.6,2.7,13.6,2.7c4.9,0,9.4-0.9,13.6-2.7c4.2-1.8,7.8-4.2,10.9-7.2c3.1-3,5.5-6.6,7.3-10.7
		C670.8,338.6,671.7,334.3,671.7,329.6z"/>
	<path class="st0" d="M706.9,276.5c0-2.3,0.8-4.2,2.3-5.7c1.5-1.5,3.5-2.3,5.7-2.3c2.3,0,4.2,0.8,5.7,2.3c1.5,1.5,2.3,3.5,2.3,5.7
		s-0.8,4.2-2.3,5.7c-1.6,1.5-3.5,2.3-5.7,2.3c-2.3,0-4.2-0.8-5.7-2.3C707.7,280.7,706.9,278.8,706.9,276.5z M709.6,297.8h10.7v73.1
		h-10.7V297.8z"/>
	<path class="st0" d="M791.1,298h-23.6v53.8c0,3.7,1,6.6,3,8.6c2,2,4.8,3,8.4,3c2,0,4.1-0.3,6.2-0.8c2.1-0.5,4.1-1.2,6-2.1l0.9,9.6
		c-2,0.7-4.4,1.4-7,2c-2.6,0.6-4.9,0.9-7,0.9c-3.8,0-7.1-0.6-9.8-1.7c-2.7-1.1-4.9-2.6-6.6-4.6c-1.7-1.9-2.9-4.1-3.7-6.7
		c-0.8-2.6-1.2-5.3-1.2-8.3V298h-17.9v-9.6h17.9v-23.8h10.7v23.8h23.6V298z"/>
</g>
<path class="st0" d="M91.7,266.2H13.2C5.9,266.2,0,260.3,0,253v0c0-7.3,5.9-13.2,13.2-13.2h78.5c7.3,0,13.2,5.9,13.2,13.2v0
	C104.8,260.3,98.9,266.2,91.7,266.2z"/>
<path class="st0" d="M91.7,322.4H13.2c-7.3,0-13.2-5.9-13.2-13.2v0c0-7.3,5.9-13.2,13.2-13.2h78.5c7.3,0,13.2,5.9,13.2,13.2v0
	C104.8,316.5,98.9,322.4,91.7,322.4z"/>
<path class="st0" d="M264.2,376.6h-77c-7.2,0-13.1-5.9-13.1-13.1v-0.2c0-7.2,5.9-13.1,13.1-13.1h77c7.2,0,13.1,5.9,13.1,13.1v0.2
	C277.3,370.7,271.4,376.6,264.2,376.6z"/>
<path class="st0" d="M91.7,374.1H13.2c-7.3,0-13.2-5.9-13.2-13.2v0c0-7.3,5.9-13.2,13.2-13.2h78.5c7.3,0,13.2,5.9,13.2,13.2v0
	C104.8,368.2,98.9,374.1,91.7,374.1z"/>
<path class="st0" d="M193.1,235.4c-39,0-70.6,31.6-70.6,70.6s31.6,70.6,70.6,70.6s70.6-31.6,70.6-70.6S232.1,235.4,193.1,235.4z
	 M193.6,349.7c-24.2,0-43.7-19.6-43.7-43.7c0-24.2,19.6-43.7,43.7-43.7c24.2,0,43.7,19.6,43.7,43.7
	C237.3,330.2,217.7,349.7,193.6,349.7z"/>
</svg>
