<?xml version="1.0" encoding="utf-8"?>
<!-- Generator: Adobe Illustrator 19.2.1, SVG Export Plug-In . SVG Version: 6.00 Build 0)  -->
<svg version="1.1" id="Layer_1" xmlns="http://www.w3.org/2000/svg" xmlns:xlink="http://www.w3.org/1999/xlink" x="0px" y="0px"
	 viewBox="0 0 792 141.2" style="enable-background:new 0 0 792 141.2;" xml:space="preserve">
<style type="text/css">
	.st0{fill:#FFFFFF;}
</style>
<g>
	<path class="st0" d="M424.1,116c-6.1,8.2-13.1,14.1-21.1,17.7s-16.6,5.4-25.9,5.4c-9.7,0-18.5-1.6-26.5-4.9s-14.9-7.9-20.6-13.8
		s-10.2-12.9-13.4-21.1c-3.2-8.2-4.8-17.1-4.8-26.7s1.6-18.5,4.8-26.6c3.2-8.1,7.7-15.1,13.4-21c5.7-5.9,12.6-10.5,20.6-13.8
		s16.9-5,26.5-5c8.6,0,16.6,1.5,24,4.6c7.4,3,14,8.1,19.6,15.3l-9.7,8c-3.9-6-9-10.3-15.1-13c-6.1-2.7-12.4-4.1-18.9-4.1
		c-8.2,0-15.6,1.4-22.3,4.3c-6.6,2.9-12.2,6.8-16.9,11.8c-4.6,5-8.2,10.9-10.7,17.7c-2.5,6.8-3.8,14.1-3.8,22s1.3,15.2,3.8,22
		s6.1,12.7,10.7,17.7s10.3,8.9,16.9,11.8s14,4.3,22.3,4.3c3.2,0,6.6-0.4,10-1.2c3.5-0.8,6.8-2,10.1-3.6c3.3-1.6,6.4-3.6,9.4-6.1
		c3-2.4,5.6-5.4,7.9-8.8L424.1,116z"/>
	<path class="st0" d="M442.7,76.6c0-1.5-0.1-3.4-0.2-5.6s-0.2-4.4-0.3-6.7c-0.1-2.3-0.2-4.4-0.3-6.3c-0.1-2-0.2-3.5-0.2-4.6h10.7
		c0.1,3.1,0.2,6.1,0.3,8.9c0.1,2.9,0.2,4.7,0.4,5.5c2.7-4.9,6.3-8.9,10.5-12c4.3-3.1,9.5-4.6,15.7-4.6c1.1,0,2.1,0.1,3.1,0.3
		c1,0.2,2.1,0.4,3.1,0.6l-1.3,10.5c-1.4-0.5-2.8-0.7-4.1-0.7c-4.6,0-8.7,0.7-12.1,2.2s-6.2,3.5-8.4,6.2c-2.2,2.6-3.8,5.7-4.9,9.2
		s-1.6,7.3-1.6,11.3v45h-10.7V76.6H442.7z"/>
	<path class="st0" d="M572,120.3c-4.2,6.3-9.3,10.8-15.5,13.6c-6.1,2.7-12.9,4.1-20.3,4.1c-6.3,0-12-1.1-17.2-3.2
		c-5.1-2.1-9.5-5.1-13.2-9s-6.5-8.5-8.5-13.8s-2.9-11.2-2.9-17.6c0-6.2,1-11.9,3-17.2c2-5.2,4.9-9.8,8.6-13.7c3.7-3.9,8-6.9,13-9.1
		s10.5-3.3,16.6-3.3c6.3,0,11.9,1.1,16.7,3.3c4.8,2.2,8.9,5.1,12.2,8.8c3.3,3.6,5.7,7.8,7.4,12.4s2.5,9.4,2.5,14.1v7.5H505
		c0,2.3,0.4,5.2,1.3,8.7s2.5,6.9,4.9,10.3c2.4,3.3,5.6,6.2,9.6,8.6s9.1,3.6,15.5,3.6c5.5,0,10.8-1.3,15.9-3.9
		c5.1-2.6,9.1-6.2,11.8-10.7L572,120.3z M563.7,87.6c0-3.7-0.7-7.1-2.2-10.4c-1.5-3.2-3.5-6-6.1-8.5c-2.6-2.4-5.6-4.4-9.1-5.8
		s-7.2-2.1-11.2-2.1c-5.8,0-10.7,1.2-14.6,3.6c-3.9,2.4-6.9,5.1-9.2,8.2s-3.9,6.1-4.8,9c-1,2.9-1.4,4.9-1.4,6L563.7,87.6L563.7,87.6
		z"/>
	<path class="st0" d="M670.6,121.4h-0.4c-1.7,2.9-3.8,5.3-6.3,7.4s-5.2,3.8-8.1,5.2c-2.9,1.4-6,2.4-9.2,3c-3.2,0.7-6.4,1-9.5,1
		c-6.3,0-12.2-1.1-17.5-3.2c-5.4-2.1-10-5.1-13.8-9s-6.8-8.5-8.9-13.8c-2.1-5.3-3.2-11.1-3.2-17.4s1.1-12.1,3.2-17.4
		c2.1-5.3,5.1-9.9,8.9-13.8c3.8-3.9,8.4-6.9,13.8-9c5.4-2.1,11.2-3.2,17.5-3.2c3.1,0,6.3,0.3,9.5,1s6.3,1.7,9.2,3
		c2.9,1.4,5.6,3.1,8.1,5.2s4.6,4.6,6.3,7.4h0.4V33.4h10.7v102.4h-10.7V121.4z M671.7,94.6c0-4.6-0.9-9-2.7-13.1s-4.2-7.7-7.3-10.7
		s-6.7-5.4-10.9-7.2c-4.2-1.8-8.7-2.7-13.6-2.7c-5,0-9.5,0.9-13.6,2.7c-4.1,1.8-7.5,4.2-10.4,7.2s-5,6.6-6.5,10.7s-2.2,8.5-2.2,13.1
		s0.7,9,2.2,13.1s3.7,7.7,6.5,10.7c2.9,3,6.3,5.4,10.4,7.2c4,1.8,8.6,2.7,13.6,2.7c4.9,0,9.4-0.9,13.6-2.7c4.2-1.8,7.8-4.2,10.9-7.2
		c3.1-3,5.5-6.6,7.3-10.7S671.7,99.3,671.7,94.6z"/>
	<path class="st0" d="M706.9,41.5c0-2.3,0.8-4.2,2.3-5.7s3.5-2.3,5.7-2.3c2.3,0,4.2,0.8,5.7,2.3s2.3,3.5,2.3,5.7s-0.8,4.2-2.3,5.7
		c-1.6,1.5-3.5,2.3-5.7,2.3c-2.3,0-4.2-0.8-5.7-2.3S706.9,43.8,706.9,41.5z M709.6,62.8h10.7v73.1h-10.7V62.8z"/>
	<path class="st0" d="M791.1,63h-23.6v53.8c0,3.7,1,6.6,3,8.6s4.8,3,8.4,3c2,0,4.1-0.3,6.2-0.8c2.1-0.5,4.1-1.2,6-2.1l0.9,9.6
		c-2,0.7-4.4,1.4-7,2s-4.9,0.9-7,0.9c-3.8,0-7.1-0.6-9.8-1.7s-4.9-2.6-6.6-4.6c-1.7-1.9-2.9-4.1-3.7-6.7s-1.2-5.3-1.2-8.3V63h-17.9
		v-9.6h17.9V29.6h10.7v23.8H791L791.1,63L791.1,63z"/>
</g>
<path class="st0" d="M91.7,31.2H13.2C5.9,31.2,0,25.3,0,18l0,0C0,10.7,5.9,4.8,13.2,4.8h78.5c7.3,0,13.2,5.9,13.2,13.2l0,0
	C104.8,25.3,98.9,31.2,91.7,31.2z"/>
<path class="st0" d="M91.7,87.4H13.2C5.9,87.4,0,81.5,0,74.2l0,0C0,66.9,5.9,61,13.2,61h78.5c7.3,0,13.2,5.9,13.2,13.2l0,0
	C104.8,81.5,98.9,87.4,91.7,87.4z"/>
<path class="st0" d="M264.2,141.6h-77c-7.2,0-13.1-5.9-13.1-13.1v-0.2c0-7.2,5.9-13.1,13.1-13.1h77c7.2,0,13.1,5.9,13.1,13.1v0.2
	C277.3,135.7,271.4,141.6,264.2,141.6z"/>
<path class="st0" d="M91.7,139.1H13.2c-7.3,0-13.2-5.9-13.2-13.2l0,0c0-7.3,5.9-13.2,13.2-13.2h78.5c7.3,0,13.2,5.9,13.2,13.2l0,0
	C104.8,133.2,98.9,139.1,91.7,139.1z"/>
<path class="st0" d="M193.1,0.4c-39,0-70.6,31.6-70.6,70.6s31.6,70.6,70.6,70.6S263.7,110,263.7,71S232.1,0.4,193.1,0.4z
	 M193.6,114.7c-24.2,0-43.7-19.6-43.7-43.7c0-24.2,19.6-43.7,43.7-43.7c24.2,0,43.7,19.6,43.7,43.7
	C237.3,95.2,217.7,114.7,193.6,114.7z"/>
</svg>
